<svg width="200" height="200" viewBox="0 0 200 200" fill="none" xmlns="http://www.w3.org/2000/svg">
<circle cx="100" cy="100" r="100" fill="#1880DF"/>
<path d="M114.576 44.2H142.8C143.856 44.2 144.768 44.584 145.536 45.352C146.304 46.12 146.688 47.032 146.688 48.088V141.112C146.688 142.168 146.304 143.08 145.536 143.848C144.768 144.616 143.856 145 142.8 145H114.576C113.52 145 112.608 144.616 111.84 143.848C111.072 143.08 110.688 142.168 110.688 141.112V110.008H87.36V141.112C87.36 142.168 86.976 143.08 86.208 143.848C85.44 144.616 84.528 145 83.472 145H55.248C54.192 145 53.28 144.664 52.512 143.992C51.744 143.224 51.36 142.264 51.36 141.112V48.088C51.36 47.032 51.744 46.12 52.512 45.352C53.28 44.584 54.192 44.2 55.248 44.2H83.472C84.528 44.2 85.44 44.584 86.208 45.352C86.976 46.12 87.36 47.032 87.36 48.088V78.328H110.688V48.088C110.688 47.032 111.072 46.12 111.84 45.352C112.608 44.584 113.52 44.2 114.576 44.2Z" fill="white"/>
</svg>
