<svg width="70" height="70" viewBox="0 0 70 70" fill="none" xmlns="http://www.w3.org/2000/svg">
<circle cx="35" cy="35" r="35" fill="#1880DF"/>
<path d="M40.192 17.4H49.6C49.952 17.4 50.256 17.528 50.512 17.784C50.768 18.04 50.896 18.344 50.896 18.696V49.704C50.896 50.056 50.768 50.36 50.512 50.616C50.256 50.872 49.952 51 49.6 51H40.192C39.84 51 39.536 50.872 39.28 50.616C39.024 50.36 38.896 50.056 38.896 49.704V39.336H31.12V49.704C31.12 50.056 30.992 50.36 30.736 50.616C30.48 50.872 30.176 51 29.824 51H20.416C20.064 51 19.76 50.888 19.504 50.664C19.248 50.408 19.12 50.088 19.12 49.704V18.696C19.12 18.344 19.248 18.04 19.504 17.784C19.76 17.528 20.064 17.4 20.416 17.4H29.824C30.176 17.4 30.48 17.528 30.736 17.784C30.992 18.04 31.12 18.344 31.12 18.696V28.776H38.896V18.696C38.896 18.344 39.024 18.04 39.28 17.784C39.536 17.528 39.84 17.4 40.192 17.4Z" fill="white"/>
</svg>
