<svg width="249" height="83" viewBox="0 0 249 83" fill="none" xmlns="http://www.w3.org/2000/svg">
<path d="M92.08 57H82.672C82.32 57 82.016 56.872 81.76 56.616C81.504 56.36 81.376 56.056 81.376 55.704V46.248L70.576 24.888C70.512 24.76 70.48 24.584 70.48 24.36C70.48 24.136 70.576 23.928 70.768 23.736C70.992 23.512 71.248 23.4 71.536 23.4H80.56C81.52 23.4 82.192 23.8 82.576 24.6L87.376 34.248L92.176 24.6C92.56 23.8 93.232 23.4 94.192 23.4H103.216C103.504 23.4 103.744 23.512 103.936 23.736C104.16 23.928 104.272 24.136 104.272 24.36C104.272 24.584 104.24 24.76 104.176 24.888L93.376 46.248V55.704C93.376 56.056 93.248 56.36 92.992 56.616C92.736 56.872 92.432 57 92.08 57ZM109.15 23.4H122.974C127.646 23.4 131.486 24.568 134.494 26.904C137.534 29.208 139.054 32.44 139.054 36.6V43.752C139.054 48.104 137.582 51.4 134.638 53.64C131.694 55.88 127.822 57 123.022 57H109.15C108.798 57 108.494 56.872 108.238 56.616C107.982 56.36 107.854 56.056 107.854 55.704V24.696C107.854 24.344 107.982 24.04 108.238 23.784C108.494 23.528 108.798 23.4 109.15 23.4ZM119.854 32.76V47.64H122.974C124.062 47.64 124.926 47.32 125.566 46.68C126.238 46.008 126.574 45.032 126.574 43.752V36.6C126.574 34.04 125.374 32.76 122.974 32.76H119.854ZM163.283 57H153.875C153.523 57 153.219 56.872 152.963 56.616C152.707 56.36 152.579 56.056 152.579 55.704V46.248L141.779 24.888C141.715 24.76 141.683 24.584 141.683 24.36C141.683 24.136 141.779 23.928 141.971 23.736C142.195 23.512 142.451 23.4 142.739 23.4H151.763C152.723 23.4 153.395 23.8 153.779 24.6L158.579 34.248L163.379 24.6C163.763 23.8 164.435 23.4 165.395 23.4H174.419C174.707 23.4 174.947 23.512 175.139 23.736C175.363 23.928 175.475 24.136 175.475 24.36C175.475 24.584 175.443 24.76 175.379 24.888L164.579 46.248V55.704C164.579 56.056 164.451 56.36 164.195 56.616C163.939 56.872 163.635 57 163.283 57ZM190.578 36.168V44.232C190.578 46.824 191.762 48.12 194.13 48.12C195.954 48.12 197.154 47.256 197.73 45.528C197.89 44.984 198.082 44.616 198.306 44.424C198.562 44.232 198.962 44.136 199.506 44.136H209.298C209.586 44.136 209.826 44.248 210.018 44.472C210.242 44.664 210.354 44.904 210.354 45.192C210.354 47.976 209.554 50.312 207.954 52.2C205.01 55.72 200.418 57.48 194.178 57.48C189.282 57.48 185.378 56.408 182.466 54.264C179.554 52.088 178.098 48.76 178.098 44.28V36.12C178.098 31.736 179.586 28.44 182.562 26.232C185.538 24.024 189.41 22.92 194.178 22.92C200.418 22.92 205.01 24.68 207.954 28.2C209.554 30.088 210.354 32.424 210.354 35.208C210.354 35.496 210.242 35.752 210.018 35.976C209.826 36.168 209.586 36.264 209.298 36.264H199.506C198.994 36.264 198.61 36.168 198.354 35.976C198.13 35.784 197.922 35.416 197.73 34.872C197.122 33.144 195.922 32.28 194.13 32.28C191.762 32.28 190.578 33.576 190.578 36.168ZM218.325 26.472C221.269 24.104 225.157 22.92 229.989 22.92C234.821 22.92 238.693 24.12 241.605 26.52C244.549 28.888 246.021 32.232 246.021 36.552V44.04C246.021 48.424 244.565 51.768 241.653 54.072C238.773 56.344 234.885 57.48 229.989 57.48C225.093 57.48 221.189 56.344 218.277 54.072C215.397 51.768 213.957 48.424 213.957 44.04V36.552C213.957 32.2 215.413 28.84 218.325 26.472ZM227.397 47.16C228.037 47.8 228.901 48.12 229.989 48.12C231.077 48.12 231.941 47.8 232.581 47.16C233.221 46.52 233.541 45.544 233.541 44.232V36.168C233.541 34.888 233.221 33.928 232.581 33.288C231.941 32.616 231.077 32.28 229.989 32.28C228.901 32.28 228.037 32.616 227.397 33.288C226.757 33.928 226.437 34.888 226.437 36.168V44.232C226.437 45.544 226.757 46.52 227.397 47.16Z" fill="white"/>
<circle cx="35" cy="41" r="35" fill="white"/>
<path d="M40.192 23.4H49.6C49.952 23.4 50.256 23.528 50.512 23.784C50.768 24.04 50.896 24.344 50.896 24.696V55.704C50.896 56.056 50.768 56.36 50.512 56.616C50.256 56.872 49.952 57 49.6 57H40.192C39.84 57 39.536 56.872 39.28 56.616C39.024 56.36 38.896 56.056 38.896 55.704V45.336H31.12V55.704C31.12 56.056 30.992 56.36 30.736 56.616C30.48 56.872 30.176 57 29.824 57H20.416C20.064 57 19.76 56.888 19.504 56.664C19.248 56.408 19.12 56.088 19.12 55.704V24.696C19.12 24.344 19.248 24.04 19.504 23.784C19.76 23.528 20.064 23.4 20.416 23.4H29.824C30.176 23.4 30.48 23.528 30.736 23.784C30.992 24.04 31.12 24.344 31.12 24.696V34.776H38.896V24.696C38.896 24.344 39.024 24.04 39.28 23.784C39.536 23.528 39.84 23.4 40.192 23.4Z" fill="black"/>
</svg>
