<svg width="340" height="87" viewBox="0 0 340 87" fill="none" xmlns="http://www.w3.org/2000/svg">
<circle cx="63" cy="43" r="35" fill="white"/>
<path d="M120.08 59H110.672C110.32 59 110.016 58.872 109.76 58.616C109.504 58.36 109.376 58.056 109.376 57.704V48.248L98.576 26.888C98.512 26.76 98.48 26.584 98.48 26.36C98.48 26.136 98.576 25.928 98.768 25.736C98.992 25.512 99.248 25.4 99.536 25.4H108.56C109.52 25.4 110.192 25.8 110.576 26.6L115.376 36.248L120.176 26.6C120.56 25.8 121.232 25.4 122.192 25.4H131.216C131.504 25.4 131.744 25.512 131.936 25.736C132.16 25.928 132.272 26.136 132.272 26.36C132.272 26.584 132.24 26.76 132.176 26.888L121.376 48.248V57.704C121.376 58.056 121.248 58.36 120.992 58.616C120.736 58.872 120.432 59 120.08 59ZM137.15 25.4H150.974C155.646 25.4 159.486 26.568 162.494 28.904C165.534 31.208 167.054 34.44 167.054 38.6V45.752C167.054 50.104 165.582 53.4 162.638 55.64C159.694 57.88 155.822 59 151.022 59H137.15C136.798 59 136.494 58.872 136.238 58.616C135.982 58.36 135.854 58.056 135.854 57.704V26.696C135.854 26.344 135.982 26.04 136.238 25.784C136.494 25.528 136.798 25.4 137.15 25.4ZM147.854 34.76V49.64H150.974C152.062 49.64 152.926 49.32 153.566 48.68C154.238 48.008 154.574 47.032 154.574 45.752V38.6C154.574 36.04 153.374 34.76 150.974 34.76H147.854ZM191.283 59H181.875C181.523 59 181.219 58.872 180.963 58.616C180.707 58.36 180.579 58.056 180.579 57.704V48.248L169.779 26.888C169.715 26.76 169.683 26.584 169.683 26.36C169.683 26.136 169.779 25.928 169.971 25.736C170.195 25.512 170.451 25.4 170.739 25.4H179.763C180.723 25.4 181.395 25.8 181.779 26.6L186.579 36.248L191.379 26.6C191.763 25.8 192.435 25.4 193.395 25.4H202.419C202.707 25.4 202.947 25.512 203.139 25.736C203.363 25.928 203.475 26.136 203.475 26.36C203.475 26.584 203.443 26.76 203.379 26.888L192.579 48.248V57.704C192.579 58.056 192.451 58.36 192.195 58.616C191.939 58.872 191.635 59 191.283 59ZM218.578 38.168V46.232C218.578 48.824 219.762 50.12 222.13 50.12C223.954 50.12 225.154 49.256 225.73 47.528C225.89 46.984 226.082 46.616 226.306 46.424C226.562 46.232 226.962 46.136 227.506 46.136H237.298C237.586 46.136 237.826 46.248 238.018 46.472C238.242 46.664 238.354 46.904 238.354 47.192C238.354 49.976 237.554 52.312 235.954 54.2C233.01 57.72 228.418 59.48 222.178 59.48C217.282 59.48 213.378 58.408 210.466 56.264C207.554 54.088 206.098 50.76 206.098 46.28V38.12C206.098 33.736 207.586 30.44 210.562 28.232C213.538 26.024 217.41 24.92 222.178 24.92C228.418 24.92 233.01 26.68 235.954 30.2C237.554 32.088 238.354 34.424 238.354 37.208C238.354 37.496 238.242 37.752 238.018 37.976C237.826 38.168 237.586 38.264 237.298 38.264H227.506C226.994 38.264 226.61 38.168 226.354 37.976C226.13 37.784 225.922 37.416 225.73 36.872C225.122 35.144 223.922 34.28 222.13 34.28C219.762 34.28 218.578 35.576 218.578 38.168ZM246.325 28.472C249.269 26.104 253.157 24.92 257.989 24.92C262.821 24.92 266.693 26.12 269.605 28.52C272.549 30.888 274.021 34.232 274.021 38.552V46.04C274.021 50.424 272.565 53.768 269.653 56.072C266.773 58.344 262.885 59.48 257.989 59.48C253.093 59.48 249.189 58.344 246.277 56.072C243.397 53.768 241.957 50.424 241.957 46.04V38.552C241.957 34.2 243.413 30.84 246.325 28.472ZM255.397 49.16C256.037 49.8 256.901 50.12 257.989 50.12C259.077 50.12 259.941 49.8 260.581 49.16C261.221 48.52 261.541 47.544 261.541 46.232V38.168C261.541 36.888 261.221 35.928 260.581 35.288C259.941 34.616 259.077 34.28 257.989 34.28C256.901 34.28 256.037 34.616 255.397 35.288C254.757 35.928 254.437 36.888 254.437 38.168V46.232C254.437 47.544 254.757 48.52 255.397 49.16Z" fill="white"/>
<path d="M68.192 25.4H77.6C77.952 25.4 78.256 25.528 78.512 25.784C78.768 26.04 78.896 26.344 78.896 26.696V57.704C78.896 58.056 78.768 58.36 78.512 58.616C78.256 58.872 77.952 59 77.6 59H68.192C67.84 59 67.536 58.872 67.28 58.616C67.024 58.36 66.896 58.056 66.896 57.704V47.336H59.12V57.704C59.12 58.056 58.992 58.36 58.736 58.616C58.48 58.872 58.176 59 57.824 59H48.416C48.064 59 47.76 58.888 47.504 58.664C47.248 58.408 47.12 58.088 47.12 57.704V26.696C47.12 26.344 47.248 26.04 47.504 25.784C47.76 25.528 48.064 25.4 48.416 25.4H57.824C58.176 25.4 58.48 25.528 58.736 25.784C58.992 26.04 59.12 26.344 59.12 26.696V36.776H66.896V26.696C66.896 26.344 67.024 26.04 67.28 25.784C67.536 25.528 67.84 25.4 68.192 25.4Z" fill="black"/>
</svg>
